<svg width="47" height="46" viewBox="0 0 47 46" fill="none" xmlns="http://www.w3.org/2000/svg">
<path d="M24.2614 43.9984C11.9987 43.9984 2.02441 34.1307 2.02441 21.9992C2.02441 9.86761 11.9987 0 24.2614 0C36.524 0 46.4983 9.86761 46.4983 21.9992C46.4983 34.1307 36.521 43.9984 24.2614 43.9984ZM24.2614 3.00658C13.6762 3.00658 5.06349 11.5272 5.06349 21.9992C5.06349 32.4711 13.6762 40.9918 24.2614 40.9918C34.8465 40.9918 43.4592 32.4711 43.4592 21.9992C43.4592 11.5272 34.8465 3.00658 24.2614 3.00658Z" fill="black"/>
<path d="M43.8258 0.517173L0.000488281 43.8739L2.14942 45.9999L45.9748 2.64313L43.8258 0.517173Z" fill="black"/>
</svg>
